<svg width="208" height="58" viewBox="0 0 208 58" fill="none" xmlns="http://www.w3.org/2000/svg">
<rect width="208" height="58" fill="#E5E5E5"/>
<g filter="url(#filter0_d_0_1)">
<rect x="4" width="200" height="50" rx="10" fill="#191414"/>
<rect x="4.5" y="0.5" width="199" height="49" rx="9.5" stroke="#1DB954"/>
</g>
<g filter="url(#filter1_d_0_1)">
<path d="M62.9756 16.7271H63.647L71.2764 25.0889L78.8936 16.7271H79.6138L81.0786 34H78.8691L77.7583 20.9995L71.3008 28.1528H71.0566L64.7944 21.1094L63.8179 34H61.6328L62.9756 16.7271ZM84.2158 37.6499C84.6309 37.8045 85.054 37.8818 85.4854 37.8818C85.9248 37.8818 86.2788 37.7923 86.5474 37.6133C86.8159 37.4424 87.0601 37.2064 87.2798 36.9053C87.6704 36.3926 88.0692 35.6113 88.4761 34.5615L88.5981 34.2441L83.7397 21.793H86.1445L88.708 28.4214C88.8464 28.7795 88.9725 29.1416 89.0864 29.5078C89.0864 29.5078 89.1882 29.8415 89.3916 30.5088C89.4893 30.8587 89.5788 31.1965 89.6602 31.522H89.7822C89.7822 31.522 89.8758 31.2249 90.063 30.6309C90.2746 29.988 90.5269 29.2881 90.8198 28.5312L93.4443 21.793H95.666L90.8442 34C89.6724 36.9785 88.3947 38.8299 87.0112 39.5542C86.5148 39.8146 86.0387 39.9448 85.583 39.9448C85.1354 39.9448 84.7936 39.9082 84.5576 39.835C84.3298 39.7617 84.0856 39.6234 83.8252 39.4199L84.2158 37.6499ZM106.799 16.7271H107.47L115.1 25.0889L122.717 16.7271H123.437L124.902 34H122.692L121.582 20.9995L115.124 28.1528H114.88L108.618 21.1094L107.641 34H105.456L106.799 16.7271ZM138.012 22.8672C138.444 23.2985 138.781 23.8438 139.025 24.5029C139.278 25.154 139.404 25.8416 139.404 26.5659C139.404 27.2902 139.322 28.1406 139.16 29.1172H130.664C130.843 30.1019 131.241 30.8791 131.86 31.4487C132.478 32.0103 133.353 32.291 134.484 32.291C135.998 32.291 137.386 32.0143 138.647 31.4609L139.038 33.2065C138.199 33.6948 137.003 34.0163 135.449 34.1709C135.017 34.2197 134.456 34.2441 133.764 34.2441C133.072 34.2441 132.348 34.1058 131.591 33.8291C130.834 33.5524 130.208 33.1455 129.711 32.6084C128.727 31.5423 128.234 29.9798 128.234 27.9209C128.234 26.1143 128.824 24.6006 130.004 23.3799C131.201 22.1592 132.694 21.5488 134.484 21.5488C135.957 21.5488 137.133 21.9883 138.012 22.8672ZM137.194 27.3228L137.243 26.6636C137.243 25.1743 136.686 24.1855 135.571 23.6973C135.196 23.5345 134.749 23.4531 134.228 23.4531C133.707 23.4531 133.227 23.5549 132.788 23.7583C132.356 23.9618 131.982 24.2384 131.665 24.5884C131.014 25.3045 130.647 26.216 130.566 27.3228H137.194ZM142.822 14.9448H145.141V29.8252C145.141 30.6553 145.198 31.2087 145.312 31.4854C145.54 32.0143 145.931 32.3521 146.484 32.4985L146.142 34C144.881 34.1628 143.981 33.8291 143.444 32.999C143.029 32.348 142.822 31.347 142.822 29.9961V14.9448ZM148.522 28.0063C148.522 27.0786 148.706 26.2201 149.072 25.4307C149.438 24.6413 149.934 23.9577 150.561 23.3799C151.888 22.1592 153.483 21.5488 155.346 21.5488C157.226 21.5488 158.793 22.1307 160.046 23.2944C161.315 24.4744 161.95 25.9922 161.95 27.8477C161.95 29.6624 161.271 31.1883 159.912 32.4253C158.593 33.6379 156.998 34.2441 155.126 34.2441C153.222 34.2441 151.652 33.6663 150.415 32.5107C149.153 31.3389 148.522 29.8374 148.522 28.0063ZM150.842 27.8721C150.842 28.5068 150.956 29.0968 151.184 29.6421C151.411 30.1792 151.725 30.6471 152.124 31.0459C152.97 31.876 154.044 32.291 155.346 32.291C156.559 32.291 157.576 31.876 158.398 31.0459C159.22 30.2321 159.631 29.2108 159.631 27.9819C159.631 26.6961 159.204 25.626 158.349 24.7715C157.503 23.9251 156.429 23.502 155.126 23.502C153.914 23.502 152.897 23.9211 152.075 24.7593C151.253 25.5894 150.842 26.627 150.842 27.8721ZM174.23 32.8403C173.083 33.7762 171.7 34.2441 170.08 34.2441C168.33 34.2441 166.918 33.6663 165.844 32.5107C164.794 31.3877 164.27 29.931 164.27 28.1406C164.27 26.1956 165.035 24.5924 166.564 23.3311C168.021 22.1429 169.795 21.5488 171.887 21.5488C172.709 21.5488 173.425 21.6099 174.035 21.7319V14.9448H176.354V34H174.584L174.23 32.8403ZM174.035 23.7949C173.181 23.5996 172.395 23.502 171.679 23.502C170.963 23.502 170.296 23.6037 169.677 23.8071C169.059 24.0106 168.522 24.3035 168.066 24.686C167.081 25.5161 166.589 26.6188 166.589 27.9941C166.589 29.1986 166.906 30.2036 167.541 31.0093C168.216 31.8638 169.116 32.291 170.239 32.291C171.508 32.291 172.558 31.9736 173.388 31.3389C173.649 31.1354 173.864 30.8994 174.035 30.6309V23.7949ZM179.577 37.6499C179.992 37.8045 180.415 37.8818 180.847 37.8818C181.286 37.8818 181.64 37.7923 181.909 37.6133C182.177 37.4424 182.421 37.2064 182.641 36.9053C183.032 36.3926 183.431 35.6113 183.837 34.5615L183.959 34.2441L179.101 21.793H181.506L184.069 28.4214C184.208 28.7795 184.334 29.1416 184.448 29.5078C184.448 29.5078 184.549 29.8415 184.753 30.5088C184.851 30.8587 184.94 31.1965 185.021 31.522H185.144C185.144 31.522 185.237 31.2249 185.424 30.6309C185.636 29.988 185.888 29.2881 186.181 28.5312L188.806 21.793H191.027L186.206 34C185.034 36.9785 183.756 38.8299 182.373 39.5542C181.876 39.8146 181.4 39.9448 180.944 39.9448C180.497 39.9448 180.155 39.9082 179.919 39.835C179.691 39.7617 179.447 39.6234 179.187 39.4199L179.577 37.6499Z" fill="white"/>
<path d="M62.9756 16.7271V15.7271H62.0503L61.9786 16.6495L62.9756 16.7271ZM63.647 16.7271L64.3857 16.053L64.0883 15.7271H63.647V16.7271ZM71.2764 25.0889L70.5376 25.7629L71.277 26.5732L72.0156 25.7623L71.2764 25.0889ZM78.8936 16.7271V15.7271H78.4518L78.1543 16.0536L78.8936 16.7271ZM79.6138 16.7271L80.6102 16.6425L80.5326 15.7271H79.6138V16.7271ZM81.0786 34V35H82.167L82.075 33.9155L81.0786 34ZM78.8691 34L77.8728 34.0851L77.9509 35H78.8691V34ZM77.7583 20.9995L78.7547 20.9144L78.5587 18.6205L77.016 20.3294L77.7583 20.9995ZM71.3008 28.1528V29.1528H71.7452L72.0431 28.8229L71.3008 28.1528ZM71.0566 28.1528L70.3093 28.8173L70.6076 29.1528H71.0566V28.1528ZM64.7944 21.1094L65.5418 20.4449L63.9754 18.6831L63.7973 21.0338L64.7944 21.1094ZM63.8179 34V35H64.745L64.815 34.0755L63.8179 34ZM61.6328 34L60.6358 33.9225L60.5521 35H61.6328V34ZM62.9756 17.7271H63.647V15.7271H62.9756V17.7271ZM62.9083 17.4011L70.5376 25.7629L72.0151 24.4149L64.3857 16.053L62.9083 17.4011ZM72.0156 25.7623L79.6328 17.4005L78.1543 16.0536L70.5371 24.4154L72.0156 25.7623ZM78.8936 17.7271H79.6138V15.7271H78.8936V17.7271ZM78.6173 16.8116L80.0822 34.0845L82.075 33.9155L80.6102 16.6425L78.6173 16.8116ZM81.0786 33H78.8691V35H81.0786V33ZM79.8655 33.9149L78.7547 20.9144L76.7619 21.0846L77.8728 34.0851L79.8655 33.9149ZM77.016 20.3294L70.5585 27.4827L72.0431 28.8229L78.5006 21.6696L77.016 20.3294ZM71.3008 27.1528H71.0566V29.1528H71.3008V27.1528ZM71.804 27.4884L65.5418 20.4449L64.0471 21.7738L70.3093 28.8173L71.804 27.4884ZM63.7973 21.0338L62.8207 33.9245L64.815 34.0755L65.7916 21.1849L63.7973 21.0338ZM63.8179 33H61.6328V35H63.8179V33ZM62.6298 34.0775L63.9726 16.8046L61.9786 16.6495L60.6358 33.9225L62.6298 34.0775ZM84.2158 37.6499L84.5649 36.7128L83.4872 36.3113L83.2393 37.4344L84.2158 37.6499ZM86.5474 37.6133L86.0105 36.7696L86.0015 36.7753L85.9927 36.7812L86.5474 37.6133ZM87.2798 36.9053L86.4844 36.2992L86.4781 36.3075L86.472 36.3158L87.2798 36.9053ZM88.4761 34.5615L89.4085 34.9229L89.4094 34.9205L88.4761 34.5615ZM88.5981 34.2441L89.5315 34.6031L89.6706 34.2415L89.5297 33.8806L88.5981 34.2441ZM83.7397 21.793V20.793H82.2761L82.8082 22.1565L83.7397 21.793ZM86.1445 21.793L87.0772 21.4323L86.83 20.793H86.1445V21.793ZM88.708 28.4214L89.6408 28.061L89.6407 28.0607L88.708 28.4214ZM89.0864 29.5078L90.043 29.2162L90.0413 29.2107L89.0864 29.5078ZM89.3916 30.5088L90.3548 30.24L90.3516 30.2285L90.3481 30.2172L89.3916 30.5088ZM89.6602 31.522L88.69 31.7645L88.8794 32.522H89.6602V31.522ZM89.7822 31.522V32.522H90.5156L90.736 31.8225L89.7822 31.522ZM90.063 30.6309L89.113 30.3182L89.1092 30.3304L90.063 30.6309ZM90.8198 28.5312L89.888 28.1683L89.8873 28.1703L90.8198 28.5312ZM93.4443 21.793V20.793H92.7607L92.5125 21.43L93.4443 21.793ZM95.666 21.793L96.5961 22.1603L97.1362 20.793H95.666V21.793ZM90.8442 34L89.9142 33.6326L89.9137 33.6339L90.8442 34ZM87.0112 39.5542L86.5474 38.6683L86.5467 38.6687L87.0112 39.5542ZM84.5576 39.835L84.2516 40.787L84.2612 40.79L84.5576 39.835ZM83.8252 39.4199L82.8487 39.2044L82.7129 39.8199L83.2096 40.2079L83.8252 39.4199ZM83.8667 38.587C84.3904 38.7821 84.9316 38.8818 85.4854 38.8818V36.8818C85.1764 36.8818 84.8713 36.827 84.5649 36.7128L83.8667 38.587ZM85.4854 38.8818C86.0528 38.8818 86.6197 38.7669 87.1021 38.4453L85.9927 36.7812C85.9379 36.8177 85.7968 36.8818 85.4854 36.8818V38.8818ZM87.0842 38.4569C87.4746 38.2086 87.8066 37.8798 88.0876 37.4947L86.472 36.3158C86.3135 36.533 86.1573 36.6762 86.0105 36.7696L87.0842 38.4569ZM88.0752 37.5113C88.5499 36.8883 88.9889 36.0054 89.4085 34.9229L87.5437 34.2001C87.1494 35.2172 86.7909 35.8969 86.4844 36.2992L88.0752 37.5113ZM89.4094 34.9205L89.5315 34.6031L87.6648 33.8852L87.5427 34.2025L89.4094 34.9205ZM89.5297 33.8806L84.6713 21.4295L82.8082 22.1565L87.6666 34.6076L89.5297 33.8806ZM83.7397 22.793H86.1445V20.793H83.7397V22.793ZM85.2119 22.1537L87.7753 28.7821L89.6407 28.0607L87.0772 21.4323L85.2119 22.1537ZM87.7752 28.7818C87.9055 29.119 88.0243 29.46 88.1316 29.8049L90.0413 29.2107C89.9207 28.8232 89.7872 28.4399 89.6408 28.061L87.7752 28.7818ZM89.0864 29.5078C88.1299 29.7994 88.1299 29.7994 88.1299 29.7994C88.1299 29.7994 88.1299 29.7994 88.1299 29.7995C88.1299 29.7995 88.1299 29.7995 88.1299 29.7995C88.1299 29.7995 88.1299 29.7995 88.1299 29.7995C88.1299 29.7995 88.1299 29.7995 88.1299 29.7996C88.13 29.7997 88.1299 29.7995 88.13 29.7997C88.1301 29.8 88.13 29.7996 88.1301 29.8C88.1301 29.8002 88.1301 29.8 88.1301 29.8002C88.1301 29.8002 88.1301 29.8003 88.1302 29.8003C88.1302 29.8003 88.1302 29.8004 88.1302 29.8004C88.1302 29.8006 88.1302 29.8005 88.1303 29.8007C88.1303 29.8009 88.1303 29.8008 88.1304 29.801C88.1304 29.801 88.1304 29.8011 88.1304 29.8011C88.1304 29.8012 88.1304 29.8012 88.1305 29.8013C88.1305 29.8013 88.1306 29.8016 88.1306 29.8016C88.131 29.803 88.1306 29.8018 88.1311 29.8033C88.1329 29.8094 88.1305 29.8015 88.1326 29.8082C88.1338 29.8122 88.1333 29.8105 88.1347 29.8151C88.1417 29.8381 88.1328 29.809 88.1406 29.8346C88.1435 29.8441 88.1453 29.8499 88.149 29.862C88.1532 29.8759 88.1654 29.9159 88.1728 29.9402C88.1741 29.9444 88.2017 30.035 88.2062 30.0497C88.2161 30.0823 88.2789 30.2882 88.3016 30.3625C88.3244 30.4375 88.3995 30.6837 88.4351 30.8004L90.3481 30.2172C90.33 30.1578 90.3472 30.2143 90.3294 30.1556C90.3268 30.147 90.3136 30.1038 90.3112 30.096C90.3033 30.0702 90.2837 30.0057 90.2766 29.9826C90.2454 29.8802 90.2748 29.9767 90.2444 29.877C90.2297 29.8288 90.2437 29.8747 90.2292 29.8271C90.2221 29.8039 90.2289 29.826 90.2218 29.8029C90.2184 29.7915 90.2217 29.8024 90.2182 29.791C90.2165 29.7854 90.2181 29.7908 90.2164 29.7851C90.2161 29.7841 90.2158 29.7832 90.2155 29.7822C90.2152 29.7812 90.2149 29.7802 90.2146 29.7792C90.214 29.7772 90.2134 29.7754 90.2128 29.7734C90.2117 29.7695 90.2122 29.7714 90.2111 29.7676C90.2108 29.7666 90.2105 29.7656 90.2102 29.7647C90.2099 29.7637 90.2096 29.7627 90.2093 29.7618C90.209 29.7608 90.2087 29.7599 90.2084 29.7589C90.2081 29.7579 90.2078 29.757 90.2075 29.756C90.2009 29.7341 90.2072 29.755 90.2006 29.7333C90.1877 29.6908 90.2 29.7312 90.1872 29.6893C90.1701 29.6331 90.1785 29.6607 90.1622 29.6072C90.1321 29.5085 90.1462 29.5547 90.1193 29.4664C90.107 29.4261 90.1129 29.4455 90.1014 29.4078C90.0955 29.3886 90.0909 29.3735 90.0859 29.3569C90.0819 29.3438 90.076 29.3244 90.0728 29.3139C90.0613 29.2763 90.0727 29.3138 90.062 29.2787C90.0568 29.2615 90.0498 29.2386 90.0477 29.2318C90.0438 29.219 90.0473 29.2303 90.0442 29.2201C90.0434 29.2178 90.0438 29.2188 90.0433 29.2172C90.043 29.2164 90.0432 29.217 90.043 29.2164C90.043 29.2162 90.043 29.2164 90.043 29.2162C90.043 29.2162 90.043 29.2162 90.043 29.2162C90.043 29.2162 90.043 29.2162 90.043 29.2162C90.043 29.2162 90.043 29.2162 89.0864 29.5078ZM88.4284 30.7776C88.5238 31.1195 88.611 31.4485 88.69 31.7645L90.6303 31.2794C90.5466 30.9444 90.4547 30.5979 90.3548 30.24L88.4284 30.7776ZM89.6602 32.522H89.7822V30.522H89.6602V32.522ZM89.7822 31.522C90.736 31.8225 90.736 31.8225 90.736 31.8225C90.736 31.8225 90.736 31.8225 90.736 31.8225C90.736 31.8225 90.736 31.8225 90.736 31.8224C90.736 31.8224 90.736 31.8224 90.736 31.8224C90.736 31.8224 90.736 31.8224 90.736 31.8224C90.736 31.8224 90.736 31.8224 90.736 31.8224C90.7361 31.8223 90.7361 31.8223 90.7361 31.8223C90.7361 31.8221 90.7361 31.8222 90.7362 31.822C90.7362 31.8219 90.7362 31.8219 90.7362 31.8218C90.7362 31.8218 90.7362 31.8217 90.7362 31.8217C90.7363 31.8217 90.7363 31.8216 90.7363 31.8216C90.7365 31.821 90.7364 31.8213 90.7366 31.8205C90.7375 31.8177 90.7362 31.822 90.7371 31.819C90.7375 31.8176 90.7379 31.8166 90.7385 31.8146C90.7408 31.8072 90.7379 31.8165 90.7404 31.8086C90.7452 31.7933 90.7403 31.8088 90.7459 31.7912C90.7569 31.7561 90.7418 31.8041 90.7536 31.7668C90.7689 31.7181 90.7572 31.7552 90.7755 31.6972C90.7772 31.6918 90.7805 31.6814 90.7823 31.6754C90.7831 31.673 90.7825 31.675 90.7832 31.6726C90.7835 31.6717 90.7839 31.6706 90.7841 31.6697C90.7855 31.6654 90.7846 31.6682 90.786 31.6639C90.7882 31.6568 90.7875 31.6591 90.7897 31.6519C90.7918 31.6455 90.7955 31.6337 90.7977 31.6267C90.8037 31.6077 90.8 31.6192 90.8062 31.5997C90.8159 31.5688 90.8144 31.5737 90.8248 31.5405C90.8393 31.4947 90.8204 31.5547 90.835 31.5083C90.8379 31.4991 90.8373 31.5009 90.8403 31.4916C90.8413 31.4883 90.8446 31.4778 90.8457 31.4744C90.8624 31.4212 90.8743 31.3837 90.8939 31.3212C90.942 31.1687 90.957 31.121 91.0168 30.9314L89.1092 30.3304C89.0324 30.5741 88.9286 30.9034 88.8986 30.9987C88.8787 31.0619 88.8542 31.1397 88.846 31.1658C88.8415 31.1801 88.8344 31.2025 88.8328 31.2075C88.831 31.2135 88.8307 31.2144 88.8295 31.218C88.829 31.2196 88.829 31.2196 88.8287 31.2206C88.8286 31.2208 88.8285 31.2211 88.8285 31.2212C88.8285 31.2213 88.8285 31.2214 88.8285 31.2214C88.8285 31.2214 88.8285 31.2215 88.8284 31.2215C88.8284 31.2215 88.8284 31.2215 88.8284 31.2215C88.8284 31.2215 88.8284 31.2215 89.7822 31.522ZM91.0129 30.9435C91.2182 30.3197 91.4644 29.6361 91.7524 28.8922L89.8873 28.1703C89.5893 28.94 89.331 29.6563 89.1131 30.3182L91.0129 30.9435ZM91.7516 28.8942L94.3762 22.1559L92.5125 21.43L89.888 28.1683L91.7516 28.8942ZM93.4443 22.793H95.666V20.793H93.4443V22.793ZM94.7359 21.4256L89.9142 33.6326L91.7743 34.3674L96.5961 22.1603L94.7359 21.4256ZM89.9137 33.6339C88.7522 36.5861 87.5849 38.1251 86.5474 38.6683L87.475 40.4401C89.2045 39.5347 90.5926 37.371 91.7748 34.3661L89.9137 33.6339ZM86.5467 38.6687C86.1611 38.8709 85.8438 38.9448 85.583 38.9448V40.9448C86.2337 40.9448 86.8685 40.7583 87.4758 40.4397L86.5467 38.6687ZM85.583 38.9448C85.1685 38.9448 84.9459 38.9084 84.854 38.8799L84.2612 40.79C84.6414 40.908 85.1024 40.9448 85.583 40.9448V38.9448ZM84.8636 38.8829C84.7816 38.8566 84.6413 38.7885 84.4408 38.6319L83.2096 40.2079C83.5299 40.4583 83.8779 40.6669 84.2516 40.787L84.8636 38.8829ZM84.8017 39.6354L85.1923 37.8654L83.2393 37.4344L82.8487 39.2044L84.8017 39.6354ZM106.799 16.7271V15.7271H105.874L105.802 16.6495L106.799 16.7271ZM107.47 16.7271L108.209 16.053L107.912 15.7271H107.47V16.7271ZM115.1 25.0889L114.361 25.7629L115.1 26.5732L115.839 25.7623L115.1 25.0889ZM122.717 16.7271V15.7271H122.275L121.978 16.0536L122.717 16.7271ZM123.437 16.7271L124.433 16.6425L124.356 15.7271H123.437V16.7271ZM124.902 34V35H125.99L125.898 33.9155L124.902 34ZM122.692 34L121.696 34.0851L121.774 35H122.692V34ZM121.582 20.9995L122.578 20.9144L122.382 18.6205L120.839 20.3294L121.582 20.9995ZM115.124 28.1528V29.1528H115.568L115.866 28.8229L115.124 28.1528ZM114.88 28.1528L114.133 28.8173L114.431 29.1528H114.88V28.1528ZM108.618 21.1094L109.365 20.4449L107.799 18.6831L107.621 21.0338L108.618 21.1094ZM107.641 34V35H108.568L108.638 34.0755L107.641 34ZM105.456 34L104.459 33.9225L104.375 35H105.456V34ZM106.799 17.7271H107.47V15.7271H106.799V17.7271ZM106.731 17.4011L114.361 25.7629L115.838 24.4149L108.209 16.053L106.731 17.4011ZM115.839 25.7623L123.456 17.4005L121.978 16.0536L114.36 24.4154L115.839 25.7623ZM122.717 17.7271H123.437V15.7271H122.717V17.7271ZM122.441 16.8116L123.905 34.0845L125.898 33.9155L124.433 16.6425L122.441 16.8116ZM124.902 33H122.692V35H124.902V33ZM123.689 33.9149L122.578 20.9144L120.585 21.0846L121.696 34.0851L123.689 33.9149ZM120.839 20.3294L114.382 27.4827L115.866 28.8229L122.324 21.6696L120.839 20.3294ZM115.124 27.1528H114.88V29.1528H115.124V27.1528ZM115.627 27.4884L109.365 20.4449L107.87 21.7738L114.133 28.8173L115.627 27.4884ZM107.621 21.0338L106.644 33.9245L108.638 34.0755L109.615 21.1849L107.621 21.0338ZM107.641 33H105.456V35H107.641V33ZM106.453 34.0775L107.796 16.8046L105.802 16.6495L104.459 33.9225L106.453 34.0775ZM139.025 24.5029L138.088 24.8502L138.09 24.8573L138.093 24.8643L139.025 24.5029ZM139.16 29.1172V30.1172H140.007L140.146 29.2816L139.16 29.1172ZM130.664 29.1172V28.1172H129.465L129.68 29.2961L130.664 29.1172ZM131.86 31.4487L131.182 32.1843L131.188 32.1891L131.86 31.4487ZM138.647 31.4609L139.623 31.2426L139.358 30.0572L138.245 30.5452L138.647 31.4609ZM139.038 33.2065L139.541 34.0706L140.173 33.7023L140.013 32.9882L139.038 33.2065ZM135.449 34.1709L135.35 33.1757L135.336 33.1772L135.449 34.1709ZM129.711 32.6084L128.977 33.2869L128.977 33.2871L129.711 32.6084ZM130.004 23.3799L129.29 22.6799L129.285 22.6849L130.004 23.3799ZM137.194 27.3228V28.3228H138.123L138.192 27.3966L137.194 27.3228ZM137.243 26.6636L138.24 26.7374L138.243 26.7006V26.6636H137.243ZM135.571 23.6973L135.972 22.7813L135.97 22.7802L135.571 23.6973ZM132.788 23.7583L132.367 22.8508L132.361 22.8539L132.788 23.7583ZM131.665 24.5884L132.404 25.2611L132.405 25.2602L131.665 24.5884ZM130.566 27.3228L129.569 27.2494L129.49 28.3228H130.566V27.3228ZM137.305 23.5743C137.62 23.8893 137.886 24.3057 138.088 24.8502L139.963 24.1556C139.677 23.3818 139.267 22.7077 138.719 22.1601L137.305 23.5743ZM138.093 24.8643C138.299 25.3958 138.404 25.9605 138.404 26.5659H140.404C140.404 25.7227 140.256 24.9122 139.958 24.1416L138.093 24.8643ZM138.404 26.5659C138.404 27.2193 138.33 28.0123 138.173 28.9528L140.146 29.2816C140.315 28.2689 140.404 27.3611 140.404 26.5659H138.404ZM139.16 28.1172H130.664V30.1172H139.16V28.1172ZM129.68 29.2961C129.89 30.4527 130.375 31.4408 131.182 32.1843L132.537 30.7132C132.108 30.3173 131.795 29.7511 131.647 28.9383L129.68 29.2961ZM131.188 32.1891C132.047 32.9692 133.194 33.291 134.484 33.291V31.291C133.513 31.291 132.91 31.0513 132.532 30.7083L131.188 32.1891ZM134.484 33.291C136.123 33.291 137.649 32.9909 139.049 32.3767L138.245 30.5452C137.123 31.0377 135.874 31.291 134.484 31.291V33.291ZM137.671 31.6793L138.062 33.4249L140.013 32.9882L139.623 31.2426L137.671 31.6793ZM138.534 32.3425C137.873 32.7278 136.838 33.0277 135.35 33.1758L135.548 35.166C137.168 35.0048 138.526 34.6619 139.541 34.0706L138.534 32.3425ZM135.336 33.1772C134.957 33.2201 134.438 33.2441 133.764 33.2441V35.2441C134.474 35.2441 135.077 35.2193 135.561 35.1646L135.336 33.1772ZM133.764 33.2441C133.207 33.2441 132.599 33.1329 131.935 32.8899L131.248 34.7683C132.097 35.0787 132.938 35.2441 133.764 35.2441V33.2441ZM131.935 32.8899C131.312 32.6621 130.824 32.3386 130.446 31.9297L128.977 33.2871C129.592 33.9524 130.357 34.4427 131.248 34.7683L131.935 32.8899ZM130.446 31.9299C129.692 31.1135 129.234 29.8334 129.234 27.9209H127.234C127.234 30.1262 127.762 31.9712 128.977 33.2869L130.446 31.9299ZM129.234 27.9209C129.234 26.3553 129.736 25.0964 130.723 24.0749L129.285 22.6849C127.913 24.1048 127.234 25.8732 127.234 27.9209H129.234ZM130.719 24.0798C131.717 23.061 132.948 22.5488 134.484 22.5488V20.5488C132.44 20.5488 130.684 21.2574 129.29 22.68L130.719 24.0798ZM134.484 22.5488C135.745 22.5488 136.648 22.9172 137.305 23.5743L138.719 22.1601C137.619 21.0594 136.17 20.5488 134.484 20.5488V22.5488ZM138.192 27.3966L138.24 26.7374L136.246 26.5897L136.197 27.2489L138.192 27.3966ZM138.243 26.6636C138.243 25.799 138.082 24.9979 137.696 24.3139C137.303 23.6167 136.713 23.1057 135.972 22.7813L135.17 24.6133C135.544 24.7771 135.79 25.0046 135.954 25.2962C136.126 25.601 136.243 26.0389 136.243 26.6636H138.243ZM135.97 22.7802C135.44 22.5499 134.85 22.4531 134.228 22.4531V24.4531C134.648 24.4531 134.953 24.5191 135.172 24.6143L135.97 22.7802ZM134.228 22.4531C133.573 22.4531 132.948 22.5819 132.367 22.8508L133.208 24.6658C133.506 24.5278 133.841 24.4531 134.228 24.4531V22.4531ZM132.361 22.8539C131.812 23.1129 131.33 23.4682 130.924 23.9166L132.405 25.2602C132.633 25.0086 132.901 24.8106 133.214 24.6627L132.361 22.8539ZM130.925 23.9157C130.102 24.821 129.664 25.954 129.569 27.2494L131.563 27.3961C131.631 26.478 131.925 25.788 132.404 25.2611L130.925 23.9157ZM130.566 28.3228H137.194V26.3228H130.566V28.3228ZM142.822 14.9448V13.9448H141.822V14.9448H142.822ZM145.141 14.9448H146.141V13.9448H145.141V14.9448ZM145.312 31.4854L144.387 31.8661L144.39 31.8736L144.394 31.881L145.312 31.4854ZM146.484 32.4985L147.459 32.7205L147.673 31.7789L146.74 31.5318L146.484 32.4985ZM146.142 34L146.27 34.9918L146.962 34.9025L147.117 34.222L146.142 34ZM143.444 32.999L142.601 33.5366L142.605 33.5423L143.444 32.999ZM142.822 15.9448H145.141V13.9448H142.822V15.9448ZM144.141 14.9448V29.8252H146.141V14.9448H144.141ZM144.141 29.8252C144.141 30.2596 144.156 30.6423 144.189 30.9652C144.221 31.2704 144.275 31.5927 144.387 31.8661L146.237 31.1046C146.24 31.1116 146.23 31.0899 146.217 31.0243C146.204 30.9616 146.19 30.8751 146.179 30.7604C146.155 30.5299 146.141 30.2209 146.141 29.8252H144.141ZM144.394 31.881C144.742 32.6899 145.376 33.2396 146.228 33.4652L146.74 31.5318C146.485 31.4645 146.338 31.3388 146.23 31.0897L144.394 31.881ZM145.509 32.2766L145.167 33.778L147.117 34.222L147.459 32.7205L145.509 32.2766ZM146.014 33.0082C145.004 33.1386 144.549 32.8649 144.284 32.4558L142.605 33.5423C143.414 34.7933 144.757 35.187 146.27 34.9918L146.014 33.0082ZM144.288 32.4615C144.026 32.0512 143.822 31.2816 143.822 29.9961H141.822C141.822 31.4124 142.033 32.6447 142.601 33.5366L144.288 32.4615ZM143.822 29.9961V14.9448H141.822V29.9961H143.822ZM149.072 25.4307L148.165 25.0098L149.072 25.4307ZM150.561 23.3799L149.884 22.644L149.883 22.6447L150.561 23.3799ZM160.046 23.2944L160.727 22.562L160.726 22.5616L160.046 23.2944ZM159.912 32.4253L159.238 31.6857L159.235 31.6893L159.912 32.4253ZM150.415 32.5107L151.097 31.78L151.095 31.7781L150.415 32.5107ZM151.184 29.6421L150.261 30.0277L150.263 30.0326L151.184 29.6421ZM152.124 31.0459L151.416 31.753L151.423 31.7598L152.124 31.0459ZM158.398 31.0459L157.694 30.3352L157.687 30.3423L158.398 31.0459ZM152.075 24.7593L152.785 25.4629L152.789 25.4594L152.075 24.7593ZM149.522 28.0063C149.522 27.2142 149.678 26.5004 149.979 25.8515L148.165 25.0098C147.733 25.9397 147.522 26.943 147.522 28.0063H149.522ZM149.979 25.8515C150.291 25.1783 150.711 24.6022 151.239 24.1151L149.883 22.6447C149.158 23.3132 148.585 24.1042 148.165 25.0098L149.979 25.8515ZM151.238 24.1157C152.373 23.0711 153.724 22.5488 155.346 22.5488V20.5488C153.241 20.5488 151.402 21.2472 149.884 22.644L151.238 24.1157ZM155.346 22.5488C157.001 22.5488 158.316 23.0529 159.365 24.0272L160.726 22.5616C159.269 21.2085 157.451 20.5488 155.346 20.5488V22.5488ZM159.365 24.0269C160.416 25.0033 160.95 26.2481 160.95 27.8477H162.95C162.95 25.7362 162.215 23.9456 160.727 22.562L159.365 24.0269ZM160.95 27.8477C160.95 29.3769 160.392 30.6356 159.239 31.6858L160.585 33.1648C162.149 31.7411 162.95 29.948 162.95 27.8477H160.95ZM159.235 31.6893C158.11 32.7239 156.76 33.2441 155.126 33.2441V35.2441C157.237 35.2441 159.077 34.5519 160.589 33.1613L159.235 31.6893ZM155.126 33.2441C153.441 33.2441 152.125 32.7406 151.097 31.78L149.732 33.2415C151.178 34.5921 153.003 35.2441 155.126 35.2441V33.2441ZM151.095 31.7781C150.052 30.8085 149.522 29.5792 149.522 28.0063H147.522C147.522 30.0956 148.255 31.8692 149.734 33.2434L151.095 31.7781ZM149.842 27.8721C149.842 28.6293 149.978 29.3515 150.261 30.0277L152.106 29.2565C151.933 28.8422 151.842 28.3844 151.842 27.8721H149.842ZM150.263 30.0326C150.539 30.6838 150.924 31.2603 151.416 31.753L152.831 30.3388C152.526 30.034 152.284 29.6746 152.104 29.2515L150.263 30.0326ZM151.423 31.7598C152.476 32.7921 153.81 33.291 155.346 33.291V31.291C154.278 31.291 153.464 30.9598 152.824 30.332L151.423 31.7598ZM155.346 33.291C156.814 33.291 158.091 32.7772 159.109 31.7495L157.687 30.3423C157.061 30.9748 156.303 31.291 155.346 31.291V33.291ZM159.102 31.7565C160.126 30.7423 160.631 29.4592 160.631 27.9819H158.631C158.631 28.9623 158.314 29.7219 157.694 30.3353L159.102 31.7565ZM160.631 27.9819C160.631 26.4497 160.111 25.1193 159.056 24.0644L157.642 25.4786C158.296 26.1326 158.631 26.9425 158.631 27.9819H160.631ZM159.056 24.0644C158.005 23.0131 156.668 22.502 155.126 22.502V24.502C156.189 24.502 157.001 24.8372 157.642 25.4786L159.056 24.0644ZM155.126 22.502C153.655 22.502 152.378 23.0222 151.361 24.0591L152.789 25.4594C153.416 24.82 154.173 24.502 155.126 24.502V22.502ZM151.364 24.0557C150.344 25.0862 149.842 26.3827 149.842 27.8721H151.842C151.842 26.8713 152.162 26.0925 152.785 25.4629L151.364 24.0557ZM174.23 32.8403L175.187 32.5484L174.752 31.1244L173.598 32.0654L174.23 32.8403ZM165.844 32.5107L166.577 31.8299L166.575 31.8279L165.844 32.5107ZM166.564 23.3311L165.932 22.5561L165.928 22.5595L166.564 23.3311ZM174.035 21.7319L173.839 22.7125L175.035 22.9517V21.7319H174.035ZM174.035 14.9448V13.9448H173.035V14.9448H174.035ZM176.354 14.9448H177.354V13.9448H176.354V14.9448ZM176.354 34V35H177.354V34H176.354ZM174.584 34L173.628 34.292L173.844 35H174.584V34ZM174.035 23.7949H175.035V22.9977L174.258 22.8201L174.035 23.7949ZM168.066 24.686L167.423 23.9201L167.421 23.9215L168.066 24.686ZM167.541 31.0093L166.756 31.6282L166.757 31.6294L167.541 31.0093ZM173.388 31.3389L173.996 32.1333L174.004 32.1269L173.388 31.3389ZM174.035 30.6309L174.879 31.1677L175.035 30.9221V30.6309H174.035ZM173.598 32.0654C172.647 32.8418 171.492 33.2441 170.08 33.2441V35.2441C171.907 35.2441 173.519 34.7106 174.863 33.6153L173.598 32.0654ZM170.08 33.2441C168.575 33.2441 167.44 32.7586 166.577 31.8299L165.112 33.1916C166.397 34.5741 168.086 35.2441 170.08 35.2441V33.2441ZM166.575 31.8279C165.726 30.9203 165.27 29.7221 165.27 28.1406H163.27C163.27 30.1399 163.863 31.8551 165.114 33.1936L166.575 31.8279ZM165.27 28.1406C165.27 26.5009 165.896 25.1783 167.201 24.1026L165.928 22.5595C164.173 24.0065 163.27 25.8903 163.27 28.1406H165.27ZM167.197 24.106C168.454 23.0799 169.998 22.5488 171.887 22.5488V20.5488C169.592 20.5488 167.588 21.2059 165.932 22.5561L167.197 24.106ZM171.887 22.5488C172.662 22.5488 173.31 22.6067 173.839 22.7125L174.231 20.7514C173.54 20.613 172.755 20.5488 171.887 20.5488V22.5488ZM175.035 21.7319V14.9448H173.035V21.7319H175.035ZM174.035 15.9448H176.354V13.9448H174.035V15.9448ZM175.354 14.9448V34H177.354V14.9448H175.354ZM176.354 33H174.584V35H176.354V33ZM175.541 33.708L175.187 32.5484L173.274 33.1323L173.628 34.292L175.541 33.708ZM174.258 22.8201C173.346 22.6116 172.485 22.502 171.679 22.502V24.502C172.306 24.502 173.015 24.5876 173.812 24.7698L174.258 22.8201ZM171.679 22.502C170.867 22.502 170.094 22.6174 169.365 22.8572L169.99 24.7571C170.498 24.5899 171.059 24.502 171.679 24.502V22.502ZM169.365 22.8572C168.637 23.0966 167.985 23.4484 167.423 23.9201L168.709 25.452C169.058 25.1587 169.481 24.9245 169.99 24.7571L169.365 22.8572ZM167.421 23.9215C166.194 24.9558 165.589 26.3468 165.589 27.9941H167.589C167.589 26.8908 167.968 26.0765 168.71 25.4506L167.421 23.9215ZM165.589 27.9941C165.589 29.3823 165.959 30.6166 166.756 31.6281L168.327 30.3904C167.854 29.7906 167.589 29.0148 167.589 27.9941H165.589ZM166.757 31.6294C167.628 32.7324 168.821 33.291 170.239 33.291V31.291C169.41 31.291 168.805 30.9952 168.326 30.3891L166.757 31.6294ZM170.239 33.291C171.679 33.291 172.956 32.9281 173.996 32.1332L172.781 30.5445C172.16 31.0192 171.337 31.291 170.239 31.291V33.291ZM174.004 32.1269C174.351 31.856 174.644 31.536 174.879 31.1677L173.191 30.094C173.084 30.2628 172.947 30.4148 172.773 30.5508L174.004 32.1269ZM175.035 30.6309V23.7949H173.035V30.6309H175.035ZM179.577 37.6499L179.926 36.7128L178.849 36.3113L178.601 37.4344L179.577 37.6499ZM181.909 37.6133L181.372 36.7696L181.363 36.7753L181.354 36.7812L181.909 37.6133ZM182.641 36.9053L181.846 36.2992L181.839 36.3075L181.833 36.3158L182.641 36.9053ZM183.837 34.5615L184.77 34.9229L184.771 34.9205L183.837 34.5615ZM183.959 34.2441L184.893 34.6031L185.032 34.2415L184.891 33.8806L183.959 34.2441ZM179.101 21.793V20.793H177.637L178.169 22.1565L179.101 21.793ZM181.506 21.793L182.439 21.4323L182.191 20.793H181.506V21.793ZM184.069 28.4214L185.002 28.061L185.002 28.0607L184.069 28.4214ZM184.448 29.5078L185.404 29.2162L185.403 29.2107L184.448 29.5078ZM184.753 30.5088L185.716 30.24L185.713 30.2285L185.709 30.2172L184.753 30.5088ZM185.021 31.522L184.051 31.7645L184.241 32.522H185.021V31.522ZM185.144 31.522V32.522H185.877L186.097 31.8225L185.144 31.522ZM185.424 30.6309L184.474 30.3182L184.471 30.3304L185.424 30.6309ZM186.181 28.5312L185.249 28.1683L185.249 28.1703L186.181 28.5312ZM188.806 21.793V20.793H188.122L187.874 21.43L188.806 21.793ZM191.027 21.793L191.957 22.1603L192.498 20.793H191.027V21.793ZM186.206 34L185.275 33.6326L185.275 33.6339L186.206 34ZM182.373 39.5542L181.909 38.6683L181.908 38.6687L182.373 39.5542ZM179.919 39.835L179.613 40.787L179.623 40.79L179.919 39.835ZM179.187 39.4199L178.21 39.2044L178.074 39.8199L178.571 40.2079L179.187 39.4199ZM179.228 38.587C179.752 38.7821 180.293 38.8818 180.847 38.8818V36.8818C180.538 36.8818 180.233 36.827 179.926 36.7128L179.228 38.587ZM180.847 38.8818C181.414 38.8818 181.981 38.7669 182.463 38.4453L181.354 36.7812C181.299 36.8177 181.158 36.8818 180.847 36.8818V38.8818ZM182.446 38.4569C182.836 38.2086 183.168 37.8798 183.449 37.4947L181.833 36.3158C181.675 36.533 181.519 36.6762 181.372 36.7696L182.446 38.4569ZM183.437 37.5113C183.911 36.8883 184.35 36.0054 184.77 34.9229L182.905 34.2001C182.511 35.2172 182.152 35.8969 181.846 36.2992L183.437 37.5113ZM184.771 34.9205L184.893 34.6031L183.026 33.8852L182.904 34.2025L184.771 34.9205ZM184.891 33.8806L180.033 21.4295L178.169 22.1565L183.028 34.6076L184.891 33.8806ZM179.101 22.793H181.506V20.793H179.101V22.793ZM180.573 22.1537L183.137 28.7821L185.002 28.0607L182.439 21.4323L180.573 22.1537ZM183.137 28.7818C183.267 29.119 183.386 29.46 183.493 29.8049L185.403 29.2107C185.282 28.8232 185.149 28.4399 185.002 28.061L183.137 28.7818ZM184.448 29.5078C183.491 29.7994 183.491 29.7994 183.491 29.7994C183.491 29.7994 183.491 29.7994 183.491 29.7995C183.491 29.7995 183.491 29.7995 183.491 29.7995C183.491 29.7995 183.491 29.7995 183.491 29.7995C183.491 29.7995 183.491 29.7995 183.491 29.7996C183.491 29.7997 183.491 29.7995 183.491 29.7997C183.491 29.8 183.491 29.7996 183.491 29.8C183.491 29.8002 183.491 29.8 183.491 29.8002C183.491 29.8002 183.491 29.8003 183.491 29.8003C183.492 29.8003 183.492 29.8004 183.492 29.8004C183.492 29.8006 183.492 29.8005 183.492 29.8007C183.492 29.8009 183.492 29.8008 183.492 29.801C183.492 29.801 183.492 29.8011 183.492 29.8011C183.492 29.8012 183.492 29.8012 183.492 29.8013C183.492 29.8013 183.492 29.8016 183.492 29.8016C183.492 29.803 183.492 29.8018 183.492 29.8033C183.494 29.8094 183.492 29.8015 183.494 29.8082C183.495 29.8122 183.495 29.8105 183.496 29.8151C183.503 29.8381 183.494 29.809 183.502 29.8346C183.505 29.8441 183.507 29.8499 183.51 29.862C183.515 29.8759 183.527 29.9159 183.534 29.9402C183.535 29.9444 183.563 30.035 183.568 30.0497C183.577 30.0823 183.64 30.2882 183.663 30.3625C183.686 30.4375 183.761 30.6837 183.796 30.8004L185.709 30.2172C185.691 30.1578 185.709 30.2143 185.691 30.1556C185.688 30.147 185.675 30.1038 185.673 30.096C185.665 30.0702 185.645 30.0057 185.638 29.9826C185.607 29.8802 185.636 29.9767 185.606 29.877C185.591 29.8288 185.605 29.8747 185.591 29.8271C185.583 29.8039 185.59 29.826 185.583 29.8029C185.58 29.7915 185.583 29.8024 185.58 29.791C185.578 29.7854 185.579 29.7908 185.578 29.7851C185.577 29.7841 185.577 29.7832 185.577 29.7822C185.577 29.7812 185.576 29.7802 185.576 29.7792C185.575 29.7772 185.575 29.7754 185.574 29.7734C185.573 29.7695 185.574 29.7714 185.572 29.7676C185.572 29.7666 185.572 29.7656 185.572 29.7647C185.571 29.7637 185.571 29.7627 185.571 29.7618C185.57 29.7608 185.57 29.7599 185.57 29.7589C185.569 29.7579 185.569 29.757 185.569 29.756C185.562 29.7341 185.569 29.755 185.562 29.7333C185.549 29.6908 185.561 29.7312 185.549 29.6893C185.531 29.6331 185.54 29.6607 185.523 29.6072C185.493 29.5085 185.507 29.5547 185.481 29.4664C185.468 29.4261 185.474 29.4455 185.463 29.4078C185.457 29.3886 185.452 29.3735 185.447 29.3569C185.443 29.3438 185.437 29.3244 185.434 29.3139C185.423 29.2763 185.434 29.3138 185.423 29.2787C185.418 29.2615 185.411 29.2386 185.409 29.2318C185.405 29.219 185.409 29.2303 185.405 29.2201C185.405 29.2178 185.405 29.2188 185.405 29.2172C185.404 29.2164 185.405 29.217 185.404 29.2164C185.404 29.2162 185.404 29.2164 185.404 29.2162C185.404 29.2162 185.404 29.2162 185.404 29.2162C185.404 29.2162 185.404 29.2162 185.404 29.2162C185.404 29.2162 185.404 29.2162 184.448 29.5078ZM183.79 30.7776C183.885 31.1195 183.972 31.4485 184.051 31.7645L185.992 31.2794C185.908 30.9444 185.816 30.5979 185.716 30.24L183.79 30.7776ZM185.021 32.522H185.144V30.522H185.021V32.522ZM185.144 31.522C186.097 31.8225 186.097 31.8225 186.097 31.8225C186.097 31.8225 186.097 31.8225 186.097 31.8225C186.097 31.8225 186.097 31.8225 186.097 31.8224C186.097 31.8224 186.097 31.8224 186.097 31.8224C186.097 31.8224 186.097 31.8224 186.097 31.8224C186.097 31.8224 186.097 31.8224 186.097 31.8224C186.097 31.8223 186.097 31.8223 186.097 31.8223C186.097 31.8221 186.097 31.8222 186.097 31.822C186.098 31.8219 186.098 31.8219 186.098 31.8218C186.098 31.8218 186.098 31.8217 186.098 31.8217C186.098 31.8217 186.098 31.8216 186.098 31.8216C186.098 31.821 186.098 31.8213 186.098 31.8205C186.099 31.8177 186.098 31.822 186.098 31.819C186.099 31.8176 186.099 31.8166 186.1 31.8146C186.102 31.8072 186.099 31.8165 186.102 31.8086C186.107 31.7933 186.102 31.8088 186.107 31.7912C186.118 31.7561 186.103 31.8041 186.115 31.7668C186.13 31.7181 186.119 31.7552 186.137 31.6972C186.139 31.6918 186.142 31.6814 186.144 31.6754C186.144 31.673 186.144 31.675 186.145 31.6726C186.145 31.6717 186.145 31.6706 186.145 31.6697C186.147 31.6654 186.146 31.6682 186.147 31.6639C186.15 31.6568 186.149 31.6591 186.151 31.6519C186.153 31.6455 186.157 31.6337 186.159 31.6267C186.165 31.6077 186.161 31.6192 186.168 31.5997C186.177 31.5688 186.176 31.5737 186.186 31.5405C186.201 31.4947 186.182 31.5547 186.196 31.5083C186.199 31.4991 186.199 31.5009 186.202 31.4916C186.203 31.4883 186.206 31.4778 186.207 31.4744C186.224 31.4212 186.236 31.3837 186.255 31.3212C186.303 31.1687 186.318 31.121 186.378 30.9314L184.471 30.3304C184.394 30.5741 184.29 30.9034 184.26 30.9987C184.24 31.0619 184.216 31.1397 184.207 31.1658C184.203 31.1801 184.196 31.2025 184.194 31.2075C184.192 31.2135 184.192 31.2144 184.191 31.218C184.19 31.2196 184.19 31.2196 184.19 31.2206C184.19 31.2208 184.19 31.2211 184.19 31.2212C184.19 31.2213 184.19 31.2214 184.19 31.2214C184.19 31.2214 184.19 31.2215 184.19 31.2215C184.19 31.2215 184.19 31.2215 184.19 31.2215C184.19 31.2215 184.19 31.2215 185.144 31.522ZM186.374 30.9435C186.579 30.3197 186.826 29.6361 187.114 28.8922L185.249 28.1703C184.951 28.94 184.692 29.6563 184.474 30.3182L186.374 30.9435ZM187.113 28.8942L189.737 22.1559L187.874 21.43L185.249 28.1683L187.113 28.8942ZM188.806 22.793H191.027V20.793H188.806V22.793ZM190.097 21.4256L185.275 33.6326L187.136 34.3674L191.957 22.1603L190.097 21.4256ZM185.275 33.6339C184.113 36.5861 182.946 38.1251 181.909 38.6683L182.836 40.4401C184.566 39.5347 185.954 37.371 187.136 34.3661L185.275 33.6339ZM181.908 38.6687C181.522 38.8709 181.205 38.9448 180.944 38.9448V40.9448C181.595 40.9448 182.23 40.7583 182.837 40.4397L181.908 38.6687ZM180.944 38.9448C180.53 38.9448 180.307 38.9084 180.215 38.8799L179.623 40.79C180.003 40.908 180.464 40.9448 180.944 40.9448V38.9448ZM180.225 38.8829C180.143 38.8566 180.003 38.7885 179.802 38.6319L178.571 40.2079C178.891 40.4583 179.239 40.6669 179.613 40.787L180.225 38.8829ZM180.163 39.6354L180.554 37.8654L178.601 37.4344L178.21 39.2044L180.163 39.6354Z" fill="#1DB954"/>
</g>
<circle cx="33.5" cy="25.5" r="17.5" fill="#1DB954"/>
<g filter="url(#filter2_d_0_1)">
<path d="M14.5293 21.2444L43.8074 13.3994L35.9624 42.6775L14.5293 21.2444Z" fill="#FDF8F8" fill-opacity="0.83" shape-rendering="crispEdges"/>
<path d="M35.7035 41.7116L15.4953 21.5033L43.1003 14.1065L35.7035 41.7116Z" stroke="black" shape-rendering="crispEdges"/>
</g>
<g filter="url(#filter3_ddi_0_1)">
<path d="M16.7183 27.9816L36.6207 11.2814L41.1322 36.8675L16.7183 27.9816Z" fill="#FCF7F7"/>
<path d="M40.4894 36.1015L17.7031 27.8079L36.2787 12.2211L40.4894 36.1015Z" stroke="black"/>
</g>
<defs>
<filter id="filter0_d_0_1" x="0" y="0" width="208" height="58" filterUnits="userSpaceOnUse" color-interpolation-filters="sRGB">
<feFlood flood-opacity="0" result="BackgroundImageFix"/>
<feColorMatrix in="SourceAlpha" type="matrix" values="0 0 0 0 0 0 0 0 0 0 0 0 0 0 0 0 0 0 127 0" result="hardAlpha"/>
<feOffset dy="4"/>
<feGaussianBlur stdDeviation="2"/>
<feComposite in2="hardAlpha" operator="out"/>
<feColorMatrix type="matrix" values="0 0 0 0 0 0 0 0 0 0 0 0 0 0 0 0 0 0 0.25 0"/>
<feBlend mode="normal" in2="BackgroundImageFix" result="effect1_dropShadow_0_1"/>
<feBlend mode="normal" in="SourceGraphic" in2="effect1_dropShadow_0_1" result="shape"/>
</filter>
<filter id="filter1_d_0_1" x="57.6328" y="14.9448" width="137.395" height="33" filterUnits="userSpaceOnUse" color-interpolation-filters="sRGB">
<feFlood flood-opacity="0" result="BackgroundImageFix"/>
<feColorMatrix in="SourceAlpha" type="matrix" values="0 0 0 0 0 0 0 0 0 0 0 0 0 0 0 0 0 0 127 0" result="hardAlpha"/>
<feOffset dy="4"/>
<feGaussianBlur stdDeviation="2"/>
<feComposite in2="hardAlpha" operator="out"/>
<feColorMatrix type="matrix" values="0 0 0 0 0 0 0 0 0 0 0 0 0 0 0 0 0 0 0.25 0"/>
<feBlend mode="normal" in2="BackgroundImageFix" result="effect1_dropShadow_0_1"/>
<feBlend mode="normal" in="SourceGraphic" in2="effect1_dropShadow_0_1" result="shape"/>
</filter>
<filter id="filter2_d_0_1" x="10.5293" y="13.3994" width="37.2781" height="37.2781" filterUnits="userSpaceOnUse" color-interpolation-filters="sRGB">
<feFlood flood-opacity="0" result="BackgroundImageFix"/>
<feColorMatrix in="SourceAlpha" type="matrix" values="0 0 0 0 0 0 0 0 0 0 0 0 0 0 0 0 0 0 127 0" result="hardAlpha"/>
<feOffset dy="4"/>
<feGaussianBlur stdDeviation="2"/>
<feComposite in2="hardAlpha" operator="out"/>
<feColorMatrix type="matrix" values="0 0 0 0 0 0 0 0 0 0 0 0 0 0 0 0 0 0 0.25 0"/>
<feBlend mode="normal" in2="BackgroundImageFix" result="effect1_dropShadow_0_1"/>
<feBlend mode="normal" in="SourceGraphic" in2="effect1_dropShadow_0_1" result="shape"/>
</filter>
<filter id="filter3_ddi_0_1" x="12.7183" y="11.2814" width="32.4139" height="33.5861" filterUnits="userSpaceOnUse" color-interpolation-filters="sRGB">
<feFlood flood-opacity="0" result="BackgroundImageFix"/>
<feColorMatrix in="SourceAlpha" type="matrix" values="0 0 0 0 0 0 0 0 0 0 0 0 0 0 0 0 0 0 127 0" result="hardAlpha"/>
<feOffset dy="4"/>
<feGaussianBlur stdDeviation="2"/>
<feComposite in2="hardAlpha" operator="out"/>
<feColorMatrix type="matrix" values="0 0 0 0 0 0 0 0 0 0 0 0 0 0 0 0 0 0 0.25 0"/>
<feBlend mode="normal" in2="BackgroundImageFix" result="effect1_dropShadow_0_1"/>
<feColorMatrix in="SourceAlpha" type="matrix" values="0 0 0 0 0 0 0 0 0 0 0 0 0 0 0 0 0 0 127 0" result="hardAlpha"/>
<feOffset dy="4"/>
<feGaussianBlur stdDeviation="2"/>
<feComposite in2="hardAlpha" operator="out"/>
<feColorMatrix type="matrix" values="0 0 0 0 0 0 0 0 0 0 0 0 0 0 0 0 0 0 0.25 0"/>
<feBlend mode="normal" in2="effect1_dropShadow_0_1" result="effect2_dropShadow_0_1"/>
<feBlend mode="normal" in="SourceGraphic" in2="effect2_dropShadow_0_1" result="shape"/>
<feColorMatrix in="SourceAlpha" type="matrix" values="0 0 0 0 0 0 0 0 0 0 0 0 0 0 0 0 0 0 127 0" result="hardAlpha"/>
<feOffset dy="4"/>
<feGaussianBlur stdDeviation="2"/>
<feComposite in2="hardAlpha" operator="arithmetic" k2="-1" k3="1"/>
<feColorMatrix type="matrix" values="0 0 0 0 0 0 0 0 0 0 0 0 0 0 0 0 0 0 0.25 0"/>
<feBlend mode="normal" in2="shape" result="effect3_innerShadow_0_1"/>
</filter>
</defs>
</svg>
